# xmcd
#
# Track frame offsets:
#	150
#	11407
#	27552
#	41987
#	54997
#	69030
#	82395
#	96345
#	111550
#	128652
#	142820
#	161230
#
# Disc length: 2335
#
# Revision: 1
# Processed by: cddbd v1.5.1PL0 Copyright (c) Steve Scherf et al.
# Submitted via: VisiTrax 2.9.5.180 - For more info visit www.synapsa.com
# Normalized: r0:DSETVAR1
#
DISCID=a6091d0c
DTITLE=Various Artist - CDX 133 April 1996
DYEAR=1996
DGENRE=
TTITLE0=Shelby Lynne - Another chance at love
TTITLE1=Patty Loveless - A thousand times a day
TTITLE2=Paul Jefferson - Check please
TTITLE3=David Ball - Circle of friends
TTITLE4=Ricochet - Daddy's money
TTITLE5=Geezinslaws - Help I'm white and I can't get it down
TTITLE6=Marty Stuart/Travis Tritt - Honky tonkin's what I do best
TTITLE7=Diamond Rio - That's what I get for loving you
TTITLE8=Cracker - The golden age
TTITLE9=Daryle Singletary - Workin' it out
TTITLE10=Boz Boswell - All I'll ever need is you
TTITLE11=Various Artist - Hope
EXTD=
EXTT0=
EXTT1=
EXTT2=
EXTT3=
EXTT4=
EXTT5=
EXTT6=
EXTT7=
EXTT8=
EXTT9=
EXTT10=
EXTT11=
PLAYORDER=
